PathFileType	4	(X/Y/Z)	Patient4_TMGait_0pt6_02_right_43.trc.trc
DataRate	CameraRate	NumFrames	NumMarkers	Units	OrigDataRate	OrigDataStartFrame	OrigNumFrames
81.395348837209	81.395348837209	4	33	mm	81.395348837209	89	       141
Frame#	Time	Sacral			L.Shoulder			Chest			R.Shoulder			Neck			R.ASIS			L.ASIS			R.Thigh.Superior			R.Thigh.Lateral			R.Thigh.Inferior			R.Patella			L.Thigh.Superior			L.Thigh.Lateral			L.Thigh.Inferior			L.Patella			L.Shank.Superior			L.Shank.Lateral			L.Shank.Inferior			R.Shank.Superior			R.Shank.Lateral			R.Shank.Inferior			R.Heel			R.Midfoot.Superior			R.Midfoot.Lateral			R.Toe			L.Heel			L.Midfoot.Lateral			L.Midfoot.Superior			L.Toe			L.Elbow			L.Wrist			R.Elbow			R.Wrist			
		X1	Y1	Z1	X2	Y2	Z2	X3	Y3	Z3	X4	Y4	Z4	X5	Y5	Z5	X6	Y6	Z6	X7	Y7	Z7	X8	Y8	Z8	X9	Y9	Z9	X10	Y10	Z10	X11	Y11	Z11	X12	Y12	Z12	X13	Y13	Z13	X14	Y14	Z14	X15	Y15	Z15	X16	Y16	Z16	X17	Y17	Z17	X18	Y18	Z18	X19	Y19	Z19	X20	Y20	Z20	X21	Y21	Z21	X22	Y22	Z22	X23	Y23	Z23	X24	Y24	Z24	X25	Y25	Z25	X26	Y26	Z26	X27	Y27	Z27	X28	Y28	Z28	X29	Y29	Z29	X30	Y30	Z30	X31	Y31	Z31	X32	Y32	Z32	X33	Y33	Z33	

89	52.971142857143	889.170030897697	1009.215089111790	472.834163353603	1063.410440061881	1436.802991272311	295.351381399804	1176.662798419138	1357.037206080746	443.748547088053	1109.804121111142	1431.993425177969	623.331689495954	1076.997479399969	1491.890538760092	446.975857839375	1114.907383921271	936.949684389845	580.398962637978	1095.467064829130	955.423577365349	307.213695854392	1131.610439944805	725.938058766094	565.103101396502	1037.115914031313	626.794291371776	629.589030846704	1111.797714950529	559.161953373050	558.217239689866	1093.174259427955	454.030937799342	578.130867663015	1162.923270654082	764.597757426105	339.669558792699	1091.518942033112	636.342102307514	281.098956608375	1188.926538054065	570.731984075103	341.646267063657	1199.340618490137	499.559926201367	350.550831078804	1176.254620116405	424.654227690402	344.801668417619	1092.792715812785	303.859673831535	298.150167366525	1154.713965109831	197.737321169416	368.798189473299	1016.889816492100	389.177071205239	582.979470119124	897.125818726171	344.958113874825	642.071684924193	888.240845425341	235.329724753273	590.712414229398	688.756762050793	151.470713559483	560.444495718770	864.733369640317	120.258190174383	600.843119789286	755.829877299143	99.097674733396	631.310102584932	944.327262216599	32.236349520432	621.033402426526	1036.176515534331	38.265799580915	415.310592761485	1109.495287739956	36.255241130823	333.773425534582	1191.640501549687	98.132907735889	359.426214450487	1320.677351460360	48.205631251922	331.809561314092	951.225509647907	1111.132507176407	160.419495043674	976.687539707986	849.105235205990	176.655443426577	1200.442828624551	1108.915159708570	754.905490915697	1395.459225132458	1218.179253447095	644.620653871021	
90	52.983428571429	888.777438965956	1009.943004095964	469.692460143706	1064.948893548606	1437.297587945806	292.672989281506	1176.804910372822	1357.699774561625	442.218005567744	1108.419834103901	1432.876372126133	621.255710636569	1076.982052961465	1492.704947308263	444.381601528645	1114.132977508191	937.822970454469	578.530983390630	1096.020855725557	956.047090309802	305.420928839402	1136.253575009646	728.294047257807	563.746252721613	1044.609367755370	627.202495026614	628.431619508327	1121.353716821328	560.833947409776	557.272809376187	1103.957735786285	454.257166971293	577.929130960267	1161.586034764420	763.491594095799	336.452536803112	1087.953155492516	636.326079404012	278.925062604907	1184.828408091395	569.769474819632	339.081918980954	1194.408933244304	498.758809763825	348.130668391085	1170.860100894417	424.025559478637	342.772256039608	1086.479125335439	303.554064122419	296.840951383329	1148.045446677907	197.446340587047	367.826641419753	1025.735638220057	390.282488594578	582.310622406870	904.170564263794	350.260822678210	640.831662151307	892.178971665641	240.805872350527	590.053416305372	690.557143036229	165.513588693150	558.811975293218	864.522169953407	125.505032265844	600.492031386073	754.425971182879	109.722351586545	630.072906928169	939.028939237460	31.797902546260	621.222064681651	1028.790933238457	38.264714034896	415.201686214092	1102.090019233770	36.110707880913	333.616709446562	1184.324221402964	97.978677369181	359.136332309792	1313.349158509950	47.926617166590	331.731687543226	960.185447748968	1108.758564792895	156.750578397468	991.545411284062	847.405656441089	169.785430231204	1187.106471276926	1105.734898722352	753.056423320565	1391.503758508855	1201.413101577627	646.806311764684	
91	52.995714285714	888.126341368207	1010.561477086814	466.736426977586	1066.522114662225	1437.562163606465	290.061200426747	1176.840707375997	1358.143499497840	440.849902052111	1106.873299558227	1433.639561066873	619.259039443727	1076.959886945391	1493.378417551613	441.835727798485	1113.152291667105	938.565596874262	576.907160300112	1096.308667866703	956.586279317677	303.804246244603	1140.923409143901	730.922357753002	562.401703843122	1052.472205255125	627.829516392201	627.420618017247	1131.176230714606	562.899932651138	556.332098062540	1115.211390395765	454.926354304661	577.601032452119	1159.960193901040	762.415487784553	333.434320923777	1084.252631675078	636.399168278191	276.835062986234	1180.539320626109	568.873575004784	336.624937819622	1189.274894355614	498.004058473958	345.751866071254	1165.304726744155	423.449477362729	340.777401859083	1080.041036286567	303.292954107510	295.516343572178	1141.300124269574	197.185465740863	366.826265226167	1035.199793261289	391.667070725551	581.517477333172	912.018102739943	355.688649872131	639.454279970807	896.964280436612	246.589466026506	589.106161767055	693.609134398015	179.660197967130	556.795990449905	865.222842907181	131.325857721344	599.761252379620	754.212328900903	120.776461582715	628.503793599142	934.781296759331	31.899553514419	621.243529050403	1021.392632892801	38.283538223476	415.064190728125	1094.676961013306	35.976885682123	333.443359544134	1177.013906828055	97.825629926442	358.822994151175	1306.019272684366	47.623139757415	331.643244845484	969.822996827308	1106.226726142320	153.132983737546	1007.034311888754	845.715539380169	163.262746204203	1173.517982765211	1102.895643784627	750.996502822848	1386.875231400780	1183.233574295482	649.050667792963	
92	53.008000000000	887.247845476951	1011.094935701164	463.979521018205	1068.080760702773	1437.627317601382	287.540685076610	1176.762094593975	1358.409634036292	439.637596335989	1105.182085868653	1434.313424188042	617.337656700128	1076.938160524416	1493.932521734577	439.351853895219	1111.983139519752	939.201133615570	575.505220220105	1096.343554824327	957.087400009829	302.346151541267	1145.505343629779	733.841640272726	561.034790751190	1060.560155028472	628.743182608864	626.539361267994	1141.111013199442	565.414272163596	555.402000982976	1126.820839770229	456.104779738169	577.186272408934	1158.077145423740	761.401058749858	330.617196436829	1080.402885118684	636.549415915881	274.884558575279	1176.070748423111	568.040610510750	334.304499185648	1183.961081568595	497.305030164515	343.489394352807	1159.609808179710	422.939820560692	338.875080306847	1073.496903989074	303.097021776131	294.227036544273	1134.486732760187	196.963195358053	365.834104180390	1045.189883804777	393.373102178412	580.645821773005	920.575827576711	361.181876095592	637.976061594569	902.616108380309	252.577992877102	587.919356612918	697.909476096086	193.512506746455	554.495750514713	866.980542433508	137.553125659599	598.644389397173	755.336156012602	131.906543501725	626.648072995602	931.899966179725	32.709914597042	620.997452191742	1013.987702798169	38.321310180813	414.901029396260	1087.261976582473	35.860826836087	333.258779908896	1169.705542824244	97.687143514136	358.495347985064	1298.685561418726	47.324570855738	331.539560954360	980.148599163388	1103.620145903848	149.598561685861	1023.184443321291	844.111847820626	157.166179683892	1159.800085323561	1100.446024843013	748.747216051026	1381.348430714184	1163.752991895089	651.384528212767	
